<svg width="250" height="250" viewBox="0 0 250 250" fill="none" xmlns="http://www.w3.org/2000/svg">
<rect x="7.5" y="7.5" width="235" height="235" rx="27.5" stroke="#344E41" stroke-width="15"/>
<rect x="39.5" y="39.5" width="172" height="172" rx="27.5" stroke="#344E41" stroke-width="15"/>
<path d="M127.101 139.323C125.176 139.323 118.782 134.458 107.918 124.729C103.542 126.311 99.2437 127.102 95.0249 127.102C86.6401 127.102 79.2573 123.885 72.8765 117.452C66.6011 111.097 63.4634 103.886 63.4634 95.8174C63.4634 86.3252 67.1416 78.2832 74.498 71.6914C81.6436 65.2842 90.1074 62.0806 99.8896 62.0806C110.357 62.0806 118.268 65.8511 123.62 73.3921C128.129 79.7466 130.383 87.894 130.383 97.8345C130.383 106.087 126.415 113.18 118.479 119.113C120.061 120.537 122.447 122.659 125.637 125.48L130.146 129.04C131.913 130.675 132.796 132.257 132.796 133.786C132.796 135.236 132.255 136.502 131.174 137.583C130.067 138.743 128.709 139.323 127.101 139.323ZM99.8896 72.9966C93.0605 72.9966 87.1938 75.1851 82.2896 79.562C77.2534 83.9917 74.7354 89.4102 74.7354 95.8174C74.7354 100.933 76.8184 105.613 80.9844 109.858C85.1768 114.077 89.8569 116.186 95.0249 116.186C95.7104 116.186 96.4487 116.146 97.2397 116.067C93.3638 112.35 91.4258 109.331 91.4258 107.01C91.4258 105.428 92.0322 104.11 93.2451 103.055C94.3789 102.08 95.6841 101.592 97.1606 101.592C98.9536 101.592 100.496 102.396 101.788 104.004C104.108 106.905 106.692 109.515 109.54 111.835C115.895 107.959 119.072 103.292 119.072 97.8345C119.072 90.5571 117.569 84.73 114.563 80.353C111.188 75.4487 106.297 72.9966 99.8896 72.9966Z" fill="#A3B18A"/>
</svg>
