<svg width="188" height="340" viewBox="0 0 188 340" fill="none" xmlns="http://www.w3.org/2000/svg">
<path d="M86 58.7068V131L98 134.5V151H37.5L8 97.8634C8 29.5904 69.7098 8.8407 98 7V32.8534V54L86 58.7068Z" fill="#A3B18A"/>
<path d="M111 61.1707C111 50.2764 86 50.2764 86 61.1707V120.888C86 130.571 111 130.168 111 120.888V61.1707Z" stroke="#344E41" stroke-width="15"/>
<mask id="path-3-inside-1_42_67" fill="white">
<path d="M94 0C145.915 0 188 42.0852 188 94C188 98.6698 187.658 103.26 187 107.747V231.996C187.658 236.494 188 241.096 188 245.777C188 297.815 145.915 340 94 340C42.0853 340 0.000119307 297.815 0 245.777C0 241.096 0.342303 236.494 1 231.996V107.747C0.342431 103.26 0 98.6698 0 94C0 42.0852 42.0852 0 94 0Z"/>
</mask>
<path d="M187 107.747L172.159 105.572L172 106.654V107.747H187ZM187 231.996H172V233.087L172.158 234.166L187 231.996ZM188 245.777L203 245.777V245.777H188ZM0 245.777H-15V245.777L0 245.777ZM1 231.996L15.8422 234.166L16 233.087V231.996H1ZM1 107.747H16V106.654L15.8415 105.572L1 107.747ZM94 0V15C137.63 15 173 50.3695 173 94H188H203C203 33.801 154.199 -15 94 -15V0ZM188 94H173C173 97.9354 172.711 101.799 172.159 105.572L187 107.747L201.841 109.922C202.604 104.721 203 99.4042 203 94H188ZM187 107.747H172V231.996H187H202V107.747H187ZM187 231.996L172.158 234.166C172.711 237.952 173 241.828 173 245.777H188H203C203 240.364 202.604 235.037 201.842 229.826L187 231.996ZM188 245.777L173 245.777C173 289.564 137.597 325 94 325V340V355C154.232 355 203 306.066 203 245.777L188 245.777ZM94 340V325C50.403 325 15.0001 289.564 15 245.777L0 245.777L-15 245.777C-14.9999 306.066 33.7676 355 94 355V340ZM0 245.777H15C15 241.828 15.2887 237.952 15.8422 234.166L1 231.996L-13.8422 229.826C-14.6041 235.037 -15 240.364 -15 245.777H0ZM1 231.996H16V107.747H1H-14V231.996H1ZM1 107.747L15.8415 105.572C15.2885 101.799 15 97.9354 15 94H0H-15C-15 99.4042 -14.6036 104.721 -13.8415 109.922L1 107.747ZM0 94H15C15 50.3695 50.3695 15 94 15V0V-15C33.801 -15 -15 33.801 -15 94H0Z" fill="#344E41" mask="url(#path-3-inside-1_42_67)"/>
<path d="M181.5 265.5C150.5 238 127.5 161 181.5 98" stroke="#344E41" stroke-width="15"/>
<path d="M7.06131 265.5C38.0613 238 61.0613 161 7.06131 98" stroke="#344E41" stroke-width="15"/>
<line x1="98" y1="6" x2="98" y2="58" stroke="#344E41" stroke-width="8"/>
<path d="M99 156L99 133" stroke="#344E41" stroke-width="8"/>
<path d="M151 155H39" stroke="#344E41" stroke-width="8"/>
</svg>
