<svg width="250" height="250" viewBox="0 0 250 250" fill="none" xmlns="http://www.w3.org/2000/svg">
<rect x="7.5" y="7.5" width="235" height="235" rx="27.5" stroke="#344E41" stroke-width="15"/>
<rect x="39.5" y="39.5" width="172" height="172" rx="27.5" stroke="#344E41" stroke-width="15"/>
<path d="M108.862 78.2959C108.334 78.2959 107.781 78.2168 107.201 78.0586C102.929 76.8984 98.7764 76.3184 94.7422 76.3184C92.7646 76.3184 90.6421 76.4766 88.3745 76.793C86.1069 77.1094 83.6943 77.584 81.1367 78.2168C81.1367 81.7236 81.0181 86.9312 80.7808 93.8394C82.2573 93.7339 87.4121 93.2461 96.2451 92.376C101.281 91.875 104.472 91.6245 105.816 91.6245C107.372 91.6245 108.704 92.1255 109.811 93.1274C110.918 94.103 111.472 95.4082 111.472 97.043C111.472 100.181 109.798 101.96 106.449 102.382C104.34 102.541 101.189 102.804 96.9966 103.173C93.2524 103.595 87.6099 104.109 80.0688 104.716C79.8843 108.064 79.792 110.767 79.792 112.824C79.792 117.992 80.0952 120.932 80.7017 121.644C80.9917 121.986 82.6528 122.158 85.6851 122.158C87.3198 122.158 89.7852 122.118 93.0811 122.039C96.377 121.96 98.8423 121.92 100.477 121.92C101.004 121.92 101.782 121.841 102.811 121.683C103.839 121.525 104.604 121.446 105.104 121.446C106.634 121.446 107.939 121.881 109.02 122.751C110.259 123.727 110.879 125.098 110.879 126.864C110.879 129.817 109.336 131.584 106.251 132.164C103.615 132.665 98.1436 132.916 89.8379 132.916C81.2422 132.916 75.6392 131.755 73.0288 129.435C70.1548 126.877 68.7178 121.34 68.7178 112.824C68.7178 109.291 68.9683 103.991 69.4692 96.9243C69.9966 89.8315 70.2603 84.5317 70.2603 81.0249C70.2603 80.1021 70.1284 78.7441 69.8647 76.9512C69.6011 75.1318 69.4692 73.7607 69.4692 72.8379C69.4692 68.8301 71.3149 66.8262 75.0063 66.8262C76.1665 66.8262 77.2344 67.1558 78.21 67.8149C81.2686 67.0503 84.1689 66.4834 86.9111 66.1143C89.6797 65.7188 92.29 65.521 94.7422 65.521C101.387 65.521 106.7 66.2856 110.681 67.8149C113.107 68.7378 114.32 70.4121 114.32 72.8379C114.32 74.209 113.845 75.4219 112.896 76.4766C111.841 77.6895 110.497 78.2959 108.862 78.2959Z" fill="#A3B18A"/>
</svg>
