<svg width="572" height="250" viewBox="0 0 572 250" fill="none" xmlns="http://www.w3.org/2000/svg">
<rect x="7.5" y="7.5" width="557" height="235" rx="27.5" stroke="#344E41" stroke-width="15"/>
<rect x="50.5" y="39.5" width="473" height="172" rx="27.5" stroke="#344E41" stroke-width="15"/>
<path d="M279.862 104.296C279.334 104.296 278.781 104.217 278.201 104.059C273.929 102.898 269.776 102.318 265.742 102.318C263.765 102.318 261.642 102.477 259.375 102.793C257.107 103.109 254.694 103.584 252.137 104.217C252.137 107.724 252.018 112.931 251.781 119.839C253.257 119.734 258.412 119.246 267.245 118.376C272.281 117.875 275.472 117.625 276.816 117.625C278.372 117.625 279.704 118.125 280.811 119.127C281.918 120.103 282.472 121.408 282.472 123.043C282.472 126.181 280.798 127.96 277.449 128.382C275.34 128.541 272.189 128.804 267.997 129.173C264.252 129.595 258.61 130.109 251.069 130.716C250.884 134.064 250.792 136.767 250.792 138.824C250.792 143.992 251.095 146.932 251.702 147.644C251.992 147.986 253.653 148.158 256.685 148.158C258.32 148.158 260.785 148.118 264.081 148.039C267.377 147.96 269.842 147.92 271.477 147.92C272.004 147.92 272.782 147.841 273.811 147.683C274.839 147.525 275.604 147.446 276.104 147.446C277.634 147.446 278.939 147.881 280.02 148.751C281.259 149.727 281.879 151.098 281.879 152.864C281.879 155.817 280.336 157.584 277.251 158.164C274.615 158.665 269.144 158.916 260.838 158.916C252.242 158.916 246.639 157.755 244.029 155.435C241.155 152.877 239.718 147.34 239.718 138.824C239.718 135.291 239.968 129.991 240.469 122.924C240.997 115.832 241.26 110.532 241.26 107.025C241.26 106.102 241.128 104.744 240.865 102.951C240.601 101.132 240.469 99.7607 240.469 98.8379C240.469 94.8301 242.315 92.8262 246.006 92.8262C247.167 92.8262 248.234 93.1558 249.21 93.8149C252.269 93.0503 255.169 92.4834 257.911 92.1143C260.68 91.7188 263.29 91.521 265.742 91.521C272.387 91.521 277.7 92.2856 281.681 93.8149C284.107 94.7378 285.32 96.4121 285.32 98.8379C285.32 100.209 284.845 101.422 283.896 102.477C282.841 103.689 281.497 104.296 279.862 104.296ZM321.825 157.808C318.582 157.808 316.776 156.213 316.407 153.022C316.038 150.307 315.668 147.578 315.299 144.835C314.904 141.935 314.706 139.206 314.706 136.648C314.706 135.963 314.746 134.79 314.825 133.128C314.93 131.467 314.983 130.294 314.983 129.608C314.983 129.424 315.009 128.962 315.062 128.224C315.115 127.459 315.141 126.84 315.141 126.365C315.141 124.177 314.574 123.083 313.44 123.083C311.015 123.083 308.628 124.506 306.282 127.354C303.961 130.175 302.142 133.761 300.824 138.112C300.771 138.982 300.652 140.142 300.468 141.592C300.31 142.779 300.23 143.939 300.23 145.073C300.23 145.811 300.31 146.932 300.468 148.435C300.652 149.911 300.745 151.019 300.745 151.757C300.745 153.26 300.217 154.499 299.163 155.475C298.134 156.477 296.829 156.978 295.247 156.978C293.665 156.978 292.36 156.477 291.332 155.475C290.303 154.499 289.789 153.26 289.789 151.757C289.789 151.019 289.71 149.911 289.552 148.435C289.394 146.932 289.314 145.811 289.314 145.073C289.314 142.542 289.499 139.021 289.868 134.513C290.237 130.004 290.422 126.484 290.422 123.953C290.422 123.162 290.369 121.988 290.264 120.433C290.185 118.851 290.145 117.677 290.145 116.913C290.145 115.436 290.672 114.223 291.727 113.274C292.808 112.298 294.126 111.811 295.682 111.811C299.136 111.811 300.982 113.88 301.219 118.02L301.259 118.455C305.108 114.579 309.169 112.641 313.44 112.641C318.424 112.641 321.865 114.724 323.763 118.89C325.029 121.685 325.662 125.864 325.662 131.428V134.236C325.635 135.449 325.622 136.306 325.622 136.807C325.622 138.863 325.899 141.513 326.453 144.756C327.033 148 327.323 150.636 327.323 152.667C327.323 154.143 326.795 155.369 325.741 156.345C324.686 157.32 323.381 157.808 321.825 157.808ZM360.98 123.162C360.427 123.162 359.768 123.148 359.003 123.122C358.265 123.069 357.619 123.043 357.065 123.043C355.984 123.043 354.731 123.148 353.308 123.359C353.782 134.012 354.02 140.973 354.02 144.242C354.02 144.585 354.033 145.231 354.059 146.18C354.085 147.103 354.099 147.854 354.099 148.435C354.099 154.499 352.187 157.531 348.364 157.531C346.914 157.531 345.661 157.083 344.606 156.187C343.446 155.237 342.866 154.051 342.866 152.627C342.866 151.678 342.906 150.254 342.985 148.355C343.064 146.457 343.104 145.033 343.104 144.084C343.104 140.894 342.866 134.064 342.392 123.597C340.757 123.518 338.278 123.307 334.956 122.964C331.66 122.595 330.012 120.881 330.012 117.822C330.012 116.346 330.513 115.093 331.515 114.065C332.517 113.037 333.809 112.522 335.391 112.522C336.367 112.522 338.608 112.681 342.115 112.997C342.088 112.153 342.022 110.756 341.917 108.805C341.812 107.117 341.759 105.812 341.759 104.889C341.759 103.413 342.299 102.187 343.38 101.211C344.461 100.235 345.767 99.7476 347.296 99.7476C351.198 99.7476 353.149 103.03 353.149 109.596L353.07 112.839C354.705 112.602 356.037 112.483 357.065 112.483C360.097 112.483 362.167 112.681 363.274 113.076C365.384 113.814 366.438 115.423 366.438 117.901C366.438 119.404 365.924 120.657 364.896 121.659C363.868 122.661 362.562 123.162 360.98 123.162ZM391.197 156.819C384.896 156.819 379.741 155.316 375.733 152.311C371.303 148.988 369.088 144.308 369.088 138.27C369.088 131.599 370.842 125.957 374.349 121.342C378.251 116.227 383.511 113.669 390.129 113.669C394.717 113.669 398.527 114.408 401.56 115.884C405.541 117.835 407.532 120.868 407.532 124.981C407.532 127.881 405.91 130.452 402.667 132.693C401.19 133.722 398.224 135.225 393.768 137.202L380.439 143.095C381.705 144.466 383.234 145.495 385.027 146.18C386.82 146.866 388.877 147.208 391.197 147.208C394.73 147.208 397.723 146.483 400.175 145.033C402.364 143.741 404.117 143.095 405.436 143.095C408.178 143.095 409.549 144.427 409.549 147.09C409.549 150.096 407.347 152.548 402.944 154.446C399.252 156.028 395.337 156.819 391.197 156.819ZM390.129 123.241C387.677 123.241 385.581 124.058 383.841 125.693C382.101 127.328 380.703 129.78 379.648 133.049C382.628 131.757 385.594 130.479 388.547 129.213C392.107 127.604 394.941 126.115 397.051 124.744C395.284 123.742 392.977 123.241 390.129 123.241ZM449.732 126.484C449.495 130.518 447.663 132.535 444.235 132.535C440.913 132.535 439.251 130.821 439.251 127.394L439.054 123.399C433.121 124.348 428.876 127.394 426.318 132.535L426.358 152.429C426.358 153.932 425.844 155.171 424.815 156.147C423.787 157.149 422.482 157.65 420.9 157.65C419.265 157.65 418 157.123 417.103 156.068C416.259 155.119 415.837 153.906 415.837 152.429V126.523C415.837 125.706 415.864 124.493 415.917 122.885C415.969 121.25 415.996 120.024 415.996 119.207C415.996 117.73 416.431 116.504 417.301 115.528C418.197 114.526 419.463 114.025 421.098 114.025C424.024 114.025 425.765 115.528 426.318 118.534C430.985 115.054 436.167 113.313 441.862 113.313C447.135 113.313 449.772 116.82 449.772 123.834C449.772 125.179 449.759 126.062 449.732 126.484Z" fill="#A3B18A"/>
<path d="M93.6328 142.719C90.5441 140.754 90.5441 136.246 93.6328 134.281L123.567 115.241C126.895 113.124 131.25 115.515 131.25 119.46V157.54C131.25 161.485 126.895 163.876 123.567 161.759L93.6328 142.719Z" fill="#A3B18A"/>
<rect x="126" y="142" width="8" height="81" rx="4" transform="rotate(-90 126 142)" fill="#A3B18A"/>
<rect x="199" y="98" width="8" height="40" rx="4" fill="#A3B18A"/>
</svg>
