<svg viewBox="0 0 512 512" xmlns="http://www.w3.org/2000/svg"><path d="M204.3 5.017C104.9 24.42 24.8 104.4 5.171 203.5c-36.1 187 131.7 326.4 258.8 306.7 41.19-6.406 61.41-54.61 42.5-91.7-23.09-45.41 9.897-98.4 60.9-98.4h79.7c35.81 0 64.8-29.59 64.9-65.31C511.5 97.13 368.1-26.89 204.3 5.017zM96 320c-17.69 0-32-14.31-32-32 0-17.69 14.31-32.03 31.1-32.03s32 14.31 32 31.1C127.1 305.7 113.7 320 96 320zm32-128c-17.69 0-32-14.31-32-32s14.31-32 32-32 32 14.31 32 32-14.3 32-32 32zm128-64c-17.69 0-32-14.31-32-32s14.3-31.96 32-31.96 32 14.31 32 32S273.7 128 256 128zm128 64c-17.69 0-32-14.31-32-32s14.31-32 32-32 32 14.31 32 32-14.3 32-32 32z" fill="#ffffff" class="fill-000000"></path></svg>