<svg width="102" height="102" viewBox="0 0 102 102" fill="none" xmlns="http://www.w3.org/2000/svg">
<path d="M40.7991 96.9C46.4324 96.9 50.9991 92.3333 50.9991 86.7C50.9991 81.0667 46.4324 76.5 40.7991 76.5C35.1658 76.5 30.5991 81.0667 30.5991 86.7C30.5991 92.3333 35.1658 96.9 40.7991 96.9Z" fill="#DAD7CD"/>
<path d="M71.4002 96.9C77.0335 96.9 81.6002 92.3333 81.6002 86.7C81.6002 81.0667 77.0335 76.5 71.4002 76.5C65.7669 76.5 61.2002 81.0667 61.2002 86.7C61.2002 92.3333 65.7669 96.9 71.4002 96.9Z" fill="#DAD7CD"/>
<path d="M99.96 29.58C97.92 27.03 94.86 25.5 91.8 25.5H33.66L30.6 8.16C29.58 3.57 25.5 0 20.4 0H10.2C4.59 0 0 4.59 0 10.2C0 15.81 4.59 20.4 10.2 20.4H11.73L20.4 63.24C21.42 68.34 25.5 71.4 30.6 71.4H81.6C86.19 71.4 89.76 68.34 91.29 64.26L101.49 38.76C102.51 35.7 102 32.64 99.96 29.58Z" fill="#DAD7CD"/>
</svg>
